<?xml version="1.0" encoding="UTF-8"?>
<svg id="Layer_1" data-name="Layer 1" xmlns="http://www.w3.org/2000/svg" viewBox="0 0 1200 1200">
  <defs>
    <style>
      .cls-1 {
        fill: #0c2836;
      }

      .cls-1, .cls-2, .cls-3 {
        stroke-width: 0px;
      }

      .cls-2 {
        fill: #b7dee8;
      }

      .cls-3 {
        fill: #fff;
      }
    </style>
  </defs>
  <rect class="cls-3" width="1200" height="1200"/>
  <g>
    <g>
      <path class="cls-2" d="M841.24,613.23c-10.8-10.8-26.21-16.54-41.18-13.53-21.46,4.32-36.02,22.7-36.02,43.68v213.39c0,7.96-4.83,15.6-12.48,17.78-9.65,2.75-19.15-3.03-21.63-12.1l-103.28-378.16,103.28-378.16c2.48-9.07,11.98-14.85,21.63-12.1,7.66,2.18,12.48,9.81,12.48,17.78v213.39c0,20.98,14.56,39.36,36.02,43.68,14.97,3.02,30.38-2.73,41.18-13.53l114.78-114.78c1.78-1.78,1.78-4.67,0-6.45l-29.75-29.75c-1.78-1.78-4.67-1.78-6.45,0l-94.52,94.52c-3.71,3.71-10.06,1.08-10.06-4.17V110.7c0-42.68-39.2-76.37-83.48-66.96-25.33,5.38-44.86,25.7-51.69,50.68l-80.07,293.21-80.07-293.21c-6.82-24.98-26.36-45.3-51.69-50.68-44.28-9.41-83.48,24.29-83.48,66.96v184.02c0,5.25-6.35,7.88-10.06,4.17l-94.52-94.52c-1.78-1.78-4.67-1.78-6.45,0l-29.74,29.75c-1.78,1.78-1.78,4.67,0,6.45l114.78,114.78c10.8,10.8,26.21,16.54,41.18,13.53,21.46-4.32,36.02-22.7,36.02-43.68V111.81c0-7.96,4.82-15.6,12.48-17.78,9.65-2.75,19.15,3.03,21.63,12.1l103.28,378.16-103.28,378.16c-2.48,9.07-11.98,14.85-21.63,12.1-7.66-2.18-12.48-9.81-12.48-17.78v-213.39c0-20.98-14.56-39.36-36.02-43.68-14.97-3.02-30.38,2.73-41.18,13.53l-114.78,114.78c-1.78,1.78-1.78,4.67,0,6.45l29.74,29.75c1.78,1.78,4.67,1.78,6.45,0l94.52-94.52c3.71-3.71,10.06-1.08,10.06,4.17v184.02c0,42.68,39.2,76.37,83.48,66.96,25.33-5.38,44.86-25.7,51.69-50.68l80.07-293.21,80.07,293.21c6.82,24.98,26.36,45.3,51.69,50.68,44.28,9.41,83.48-24.29,83.48-66.96v-184.02c0-5.25,6.35-7.88,10.06-4.17l94.52,94.52c1.78,1.78,4.67,1.78,6.45,0l29.75-29.75c1.78-1.78,1.78-4.67,0-6.45l-114.78-114.78Z"/>
      <path class="cls-2" d="M1020.39,572.12l-185.82-61.94c-8.4-2.8-15.63-9.02-18.28-17.46-.89-2.84-1.19-5.66-1.19-8.42,0-2.76.3-5.58,1.19-8.42,2.66-8.44,9.89-14.67,18.28-17.46l185.82-61.94c2.39-.8,3.68-3.38,2.89-5.77l-13.3-39.91c-.8-2.39-3.38-3.68-5.77-2.89l-186.99,62.33c-31.94,10.65-53.33,40.41-53.37,74.06.04,33.65,21.43,63.41,53.37,74.06l186.99,62.33c2.39.8,4.97-.5,5.77-2.89l13.3-39.91c.8-2.39-.5-4.97-2.89-5.77Z"/>
      <path class="cls-2" d="M436.15,484.3c-.04-33.65-21.43-63.41-53.37-74.06l-186.99-62.33c-2.39-.8-4.97.5-5.77,2.89l-13.3,39.91c-.8,2.39.5,4.97,2.89,5.77l185.82,61.94c8.4,2.8,15.63,9.02,18.29,17.46.89,2.84,1.19,5.66,1.19,8.42,0,2.76-.3,5.58-1.19,8.42-2.66,8.44-9.89,14.67-18.29,17.46l-185.82,61.94c-2.39.8-3.68,3.38-2.89,5.77l13.3,39.91c.8,2.39,3.38,3.68,5.77,2.89l186.99-62.33c31.94-10.65,53.33-40.41,53.37-74.06Z"/>
    </g>
    <g>
      <path class="cls-1" d="M220.67,1157.85c-13.57,0-24.32-3.84-32.26-11.52-7.95-7.68-11.92-18.78-11.92-33.3v-26.06c0-14.52,3.97-25.62,11.92-33.3,7.94-7.68,18.7-11.52,32.26-11.52s23.65,3.71,30.91,11.13c7.26,7.42,10.89,17.53,10.89,30.36v.95h-17.01v-1.43c0-7.52-2.04-13.67-6.12-18.44-4.08-4.77-10.31-7.15-18.68-7.15s-15.1,2.57-19.86,7.71c-4.77,5.14-7.15,12.27-7.15,21.37v26.7c0,9.01,2.39,16.1,7.15,21.29,4.77,5.19,11.39,7.79,19.86,7.79s14.6-2.41,18.68-7.23c4.08-4.82,6.12-10.94,6.12-18.36v-2.7h17.01v2.22c0,12.82-3.63,22.94-10.89,30.36-7.26,7.42-17.56,11.12-30.91,11.12Z"/>
      <path class="cls-1" d="M317.92,1157.85c-7.84,0-14.81-1.62-20.9-4.85-6.09-3.23-10.89-7.86-14.38-13.9-3.5-6.04-5.25-13.19-5.25-21.46v-1.43c0-8.26,1.75-15.38,5.25-21.37,3.5-5.98,8.29-10.62,14.38-13.91,6.09-3.28,13.06-4.93,20.9-4.93s14.83,1.64,20.98,4.93c6.14,3.29,10.97,7.92,14.46,13.91,3.5,5.99,5.25,13.11,5.25,21.37v1.43c0,8.26-1.75,15.42-5.25,21.46-3.5,6.04-8.32,10.67-14.46,13.9-6.15,3.23-13.14,4.85-20.98,4.85ZM317.92,1143.23c7.21,0,13.06-2.31,17.56-6.92,4.5-4.61,6.75-10.99,6.75-19.15v-.48c0-8.16-2.22-14.54-6.68-19.15-4.45-4.61-10.33-6.91-17.64-6.91s-12.9,2.3-17.4,6.91c-4.5,4.61-6.75,10.99-6.75,19.15v.48c0,8.16,2.25,14.54,6.75,19.15,4.5,4.61,10.31,6.92,17.4,6.92Z"/>
      <path class="cls-1" d="M376.08,1155.62v-78.35h16.05v11.76h2.54c1.49-3.18,4.13-6.15,7.95-8.9,3.82-2.76,9.48-4.14,17.01-4.14,5.93,0,11.21,1.33,15.81,3.97,4.61,2.65,8.24,6.39,10.89,11.21,2.65,4.82,3.97,10.62,3.97,17.4v47.04h-16.37v-45.77c0-6.78-1.69-11.78-5.08-15.02-3.39-3.23-8.05-4.85-13.99-4.85-6.78,0-12.21,2.22-16.29,6.68-4.08,4.45-6.12,10.91-6.12,19.39v39.57h-16.37Z"/>
      <path class="cls-1" d="M470.19,1077.27v-25.9h16.37v25.9h20.82v13.83h-20.82v45.93c0,3.18,1.49,4.77,4.45,4.77h16.37v13.83h-21.62c-4.77,0-8.56-1.43-11.36-4.29-2.81-2.86-4.21-6.68-4.21-11.44v-62.62Z"/>
      <path class="cls-1" d="M527.28,1155.62v-78.35h16.05v9.22h2.54c1.27-3.28,3.31-5.7,6.12-7.23,2.81-1.53,6.28-2.3,10.41-2.3h9.38v14.78h-10.01c-5.3,0-9.64,1.46-13.03,4.37-3.39,2.92-5.09,7.39-5.09,13.43v46.09h-16.37Z"/>
      <path class="cls-1" d="M812.82,1155.62v-78.35h16.37v78.35h-16.37Z"/>
      <path class="cls-1" d="M821.09,1064.4c-3.18,0-5.85-1.04-8.03-3.1-2.17-2.07-3.26-4.74-3.26-8.03s1.09-5.96,3.26-8.03c2.17-2.07,4.85-3.1,8.03-3.1s5.98,1.03,8.11,3.1c2.12,2.07,3.18,4.74,3.18,8.03s-1.06,5.96-3.18,8.03c-2.12,2.07-4.82,3.1-8.11,3.1Z"/>
      <path class="cls-1" d="M850.35,1155.62v-78.35h16.05v11.76h2.54c1.49-3.18,4.13-6.15,7.95-8.9,3.82-2.76,9.48-4.14,17.01-4.14,5.93,0,11.21,1.33,15.81,3.97,4.61,2.65,8.24,6.39,10.89,11.21,2.65,4.82,3.97,10.62,3.97,17.4v47.04h-16.37v-45.77c0-6.78-1.69-11.78-5.08-15.02-3.39-3.23-8.05-4.85-13.99-4.85-6.78,0-12.21,2.22-16.29,6.68-4.08,4.45-6.12,10.91-6.12,19.39v39.57h-16.37Z"/>
      <path class="cls-1" d="M978.22,1157.85c-6.47,0-12.45-1.59-17.96-4.77-5.51-3.18-9.93-7.76-13.27-13.75-3.34-5.98-5.01-13.22-5.01-21.69v-1.43c0-8.37,1.64-15.58,4.93-21.62,3.29-6.04,7.68-10.65,13.19-13.83,5.51-3.18,11.55-4.77,18.12-4.77,5.08,0,9.35.64,12.79,1.91,3.44,1.27,6.28,2.89,8.5,4.85,2.22,1.96,3.92,4,5.09,6.12h2.54v-44.5h16.37v111.25h-16.05v-11.12h-2.54c-2.01,3.39-5.06,6.46-9.14,9.22-4.08,2.75-9.93,4.13-17.56,4.13ZM982.83,1143.54c7.09,0,12.95-2.27,17.56-6.83,4.61-4.55,6.92-11.07,6.92-19.55v-.48c0-8.37-2.28-14.83-6.83-19.39-4.56-4.55-10.44-6.83-17.64-6.83s-12.79,2.28-17.4,6.83c-4.61,4.56-6.91,11.02-6.91,19.39v.48c0,8.48,2.3,15,6.91,19.55,4.61,4.56,10.41,6.83,17.4,6.83Z"/>
      <path class="cls-1" d="M755.44,1055.64l-24.05,88.54-24.05-88.54c-2.16-7.96-9.39-13.49-17.65-13.49h0c-10.1,0-18.28,8.19-18.28,18.28v95.19h16.69v-96.78h2.54l26.29,96.78h28.93l26.29-96.78h2.54v96.78h16.69v-95.19c0-10.1-8.19-18.28-18.28-18.28h0c-8.25,0-15.48,5.53-17.65,13.49Z"/>
      <path class="cls-1" d="M642.76,1083.79c-5.83-5.19-13.83-7.79-24-7.79-6.57,0-12.19,1.06-16.85,3.18-4.66,2.12-8.4,4.9-11.2,8.34-2.81,3.45-4.85,7.28-6.12,11.52l15.26,4.92c.95-4.23,2.92-7.68,5.88-10.33,2.96-2.65,7.26-3.97,12.87-3.97s9.96,1.38,12.72,4.13c2.75,2.76,4.13,6.41,4.13,10.97v5.09h-23.84c-5.72,0-10.83.9-15.33,2.7-4.51,1.8-8.05,4.48-10.65,8.03-2.6,3.55-3.89,7.07-3.89,12.48s1.3,9.8,3.89,13.51c2.6,3.71,6.09,6.51,10.49,8.42,4.39,1.91,9.4,2.86,15.02,2.86s9.74-.77,13.03-2.3c3.28-1.54,5.78-3.36,7.47-5.48,1.69-2.12,2.97-3.97,3.82-5.56h2.38v11.12h13.67v-49.75c0-9.54-2.92-16.9-8.74-22.09ZM635.45,1124.15c0,6.57-2.01,10.78-6.04,14.54-4.03,3.76-9.33,5.64-15.9,5.64-4.77,0-8.53-1.06-11.28-3.18-2.76-2.12-4.14-4.98-4.14-8.58s1.33-5.38,3.97-7.23c2.65-1.85,6.15-2.78,10.49-2.78h22.89v1.59Z"/>
    </g>
  </g>
</svg>