<?xml version="1.0" encoding="UTF-8"?>
<svg id="Layer_1" xmlns="http://www.w3.org/2000/svg" version="1.1" viewBox="0 0 1200 342.5">
  <!-- Generator: Adobe Illustrator 29.3.0, SVG Export Plug-In . SVG Version: 2.1.0 Build 146)  -->
  <defs>
    <style>
      .st0 {
        fill: #0c2836;
      }
    </style>
  </defs>
  <g>
    <path class="st0" d="M257,212.5c-3.6-3.6-8.7-5.5-13.7-4.5-7.1,1.4-12,7.6-12,14.6v71.1c0,2.7-1.6,5.2-4.2,5.9-3.2.9-6.4-1-7.2-4l-34.4-126,34.4-126c.8-3,4-5,7.2-4,2.6.7,4.2,3.3,4.2,5.9v71.1c0,7,4.9,13.1,12,14.6,5,1,10.1-.9,13.7-4.5l38.2-38.2c.6-.6.6-1.6,0-2.2l-9.9-9.9c-.6-.6-1.6-.6-2.1,0l-31.5,31.5c-1.2,1.2-3.4.4-3.4-1.4v-61.3c0-14.2-13.1-25.5-27.8-22.3-8.4,1.8-14.9,8.6-17.2,16.9l-26.7,97.7-26.7-97.7c-2.3-8.3-8.8-15.1-17.2-16.9-14.8-3.1-27.8,8.1-27.8,22.3v61.3c0,1.8-2.1,2.6-3.3,1.4l-31.5-31.5c-.6-.6-1.6-.6-2.2,0l-9.9,9.9c-.6.6-.6,1.6,0,2.2l38.3,38.2c3.6,3.6,8.7,5.5,13.7,4.5,7.2-1.4,12-7.6,12-14.6V45.4c0-2.6,1.6-5.2,4.2-5.9,3.2-.9,6.4,1,7.2,4l34.4,126-34.4,126c-.8,3-4,5-7.2,4-2.6-.7-4.2-3.3-4.2-5.9v-71.1c0-7-4.8-13.1-12-14.6-5-1-10.1.9-13.7,4.5l-38.2,38.2c-.6.6-.6,1.6,0,2.2l9.9,9.9c.6.6,1.6.6,2.2,0l31.5-31.5c1.2-1.2,3.3-.4,3.3,1.4v61.3c0,14.2,13.1,25.5,27.8,22.3,8.4-1.8,14.9-8.6,17.2-16.9l26.7-97.7,26.7,97.7c2.3,8.3,8.8,15.1,17.2,16.9,14.8,3.1,27.8-8.1,27.8-22.3v-61.3c0-1.8,2.1-2.6,3.4-1.4l31.5,31.5c.6.6,1.6.6,2.1,0l9.9-9.9c.6-.6.6-1.6,0-2.2l-38.2-38.2h0Z"/>
    <path class="st0" d="M316.7,198.8l-61.9-20.6c-2.8-.9-5.2-3-6.1-5.8-.3-1-.4-1.9-.4-2.8s.1-1.9.4-2.8c.9-2.8,3.3-4.9,6.1-5.8l61.9-20.6c.8-.3,1.2-1.1,1-1.9l-4.4-13.3c-.3-.8-1.1-1.2-1.9-1l-62.3,20.8c-10.6,3.5-17.8,13.5-17.8,24.7,0,11.2,7.1,21.1,17.8,24.7l62.3,20.8c.8.3,1.7-.2,1.9-1l4.4-13.3c.3-.8-.2-1.7-1-1.9Z"/>
    <path class="st0" d="M122,169.5c0-11.2-7.1-21.1-17.8-24.7l-62.3-20.8c-.8-.3-1.7.2-1.9,1l-4.4,13.3c-.3.8.2,1.7,1,1.9l61.9,20.6c2.8.9,5.2,3,6.1,5.8.3,1,.4,1.9.4,2.8s0,1.9-.4,2.8c-.9,2.8-3.3,4.9-6.1,5.8l-61.9,20.6c-.8.3-1.2,1.1-1,1.9l4.4,13.3c.3.8,1.1,1.2,1.9,1l62.3-20.8c10.6-3.5,17.8-13.5,17.8-24.7Z"/>
  </g>
  <g>
    <path class="st0" d="M428.8,222.5c-12.4,0-22.3-3.5-29.6-10.6s-10.9-17.2-10.9-30.5v-23.9c0-13.3,3.6-23.5,10.9-30.5,7.3-7,17.1-10.6,29.6-10.6s21.7,3.4,28.3,10.2,10,16.1,10,27.8v.9h-15.6v-1.3c0-6.9-1.9-12.5-5.6-16.9-3.7-4.4-9.4-6.6-17.1-6.6s-13.8,2.4-18.2,7.1c-4.4,4.7-6.6,11.2-6.6,19.6v24.5c0,8.2,2.2,14.8,6.6,19.5s10.4,7.1,18.2,7.1,13.4-2.2,17.1-6.6,5.6-10,5.6-16.8v-2.5h15.6v2c0,11.8-3.3,21-10,27.8-6.6,6.8-16.1,10.2-28.3,10.2h0Z"/>
    <path class="st0" d="M517.9,222.5c-7.2,0-13.6-1.5-19.1-4.4s-10-7.2-13.2-12.7c-3.2-5.5-4.8-12.1-4.8-19.7v-1.3c0-7.6,1.6-14.1,4.8-19.6,3.2-5.5,7.6-9.7,13.2-12.8,5.6-3,12-4.5,19.1-4.5s13.6,1.5,19.2,4.5c5.6,3,10,7.3,13.2,12.8,3.2,5.5,4.8,12,4.8,19.6v1.3c0,7.6-1.6,14.1-4.8,19.7-3.2,5.5-7.6,9.8-13.2,12.7-5.6,3-12,4.4-19.2,4.4ZM517.9,209.1c6.6,0,12-2.1,16.1-6.3,4.1-4.2,6.2-10.1,6.2-17.5v-.4c0-7.5-2-13.3-6.1-17.5s-9.5-6.3-16.2-6.3-11.8,2.1-16,6.3c-4.1,4.2-6.2,10.1-6.2,17.5v.4c0,7.5,2.1,13.3,6.2,17.5s9.4,6.3,16,6.3h0Z"/>
    <path class="st0" d="M571.2,220.5v-71.8h14.7v10.8h2.3c1.4-2.9,3.8-5.6,7.3-8.2,3.5-2.5,8.7-3.8,15.6-3.8s10.3,1.2,14.5,3.6c4.2,2.4,7.5,5.8,10,10.3,2.4,4.4,3.6,9.7,3.6,16v43.1h-15v-42c0-6.2-1.5-10.8-4.7-13.8s-7.4-4.4-12.8-4.4-11.2,2-14.9,6.1-5.6,10-5.6,17.8v36.3h-15,0Z"/>
    <path class="st0" d="M657.5,148.7v-23.7h15v23.7h19.1v12.7h-19.1v42.1c0,2.9,1.4,4.4,4.1,4.4h15v12.7h-19.8c-4.4,0-7.8-1.3-10.4-3.9-2.6-2.6-3.9-6.1-3.9-10.5v-57.4h0Z"/>
    <path class="st0" d="M709.8,220.5v-71.8h14.7v8.5h2.3c1.2-3,3-5.2,5.6-6.6,2.6-1.4,5.8-2.1,9.5-2.1h8.6v13.5h-9.2c-4.9,0-8.8,1.3-11.9,4-3.1,2.7-4.7,6.8-4.7,12.3v42.2h-15Z"/>
    <path class="st0" d="M971.5,220.5v-71.8h15v71.8h-15Z"/>
    <path class="st0" d="M979,136.9c-2.9,0-5.4-1-7.4-2.8-2-1.9-3-4.3-3-7.4s1-5.5,3-7.4,4.4-2.8,7.4-2.8,5.5.9,7.4,2.8c1.9,1.9,2.9,4.3,2.9,7.4s-1,5.5-2.9,7.4c-1.9,1.9-4.4,2.8-7.4,2.8Z"/>
    <path class="st0" d="M1005.8,220.5v-71.8h14.7v10.8h2.3c1.4-2.9,3.8-5.6,7.3-8.2,3.5-2.5,8.7-3.8,15.6-3.8s10.3,1.2,14.5,3.6c4.2,2.4,7.6,5.8,10,10.3,2.4,4.4,3.6,9.7,3.6,16v43.1h-15v-42c0-6.2-1.6-10.8-4.7-13.8s-7.4-4.4-12.8-4.4-11.2,2-14.9,6.1c-3.7,4.1-5.6,10-5.6,17.8v36.3h-15,0Z"/>
    <path class="st0" d="M1123,222.5c-5.9,0-11.4-1.5-16.5-4.4-5.1-2.9-9.1-7.1-12.2-12.6-3.1-5.5-4.6-12.1-4.6-19.9v-1.3c0-7.7,1.5-14.3,4.5-19.8,3-5.5,7-9.8,12.1-12.7,5.1-2.9,10.6-4.4,16.6-4.4s8.6.6,11.7,1.8c3.2,1.2,5.8,2.7,7.8,4.4,2,1.8,3.6,3.7,4.7,5.6h2.3v-40.8h15v102h-14.7v-10.2h-2.3c-1.8,3.1-4.6,5.9-8.4,8.5-3.7,2.5-9.1,3.8-16.1,3.8h0ZM1127.3,209.4c6.5,0,11.9-2.1,16.1-6.3,4.2-4.2,6.3-10.2,6.3-17.9v-.4c0-7.7-2.1-13.6-6.3-17.8-4.2-4.2-9.6-6.3-16.2-6.3s-11.7,2.1-15.9,6.3c-4.2,4.2-6.3,10.1-6.3,17.8v.4c0,7.8,2.1,13.7,6.3,17.9s9.5,6.3,15.9,6.3h0Z"/>
    <path class="st0" d="M918.9,128.8l-22,81.2-22-81.2c-2-7.3-8.6-12.4-16.2-12.4h0c-9.2,0-16.8,7.5-16.8,16.8v87.2h15.3v-88.7h2.3l24.1,88.7h26.5l24.1-88.7h2.3v88.7h15.3v-87.2c0-9.2-7.5-16.8-16.8-16.8h0c-7.6,0-14.2,5.1-16.2,12.4h0Z"/>
    <path class="st0" d="M815.6,154.7c-5.3-4.8-12.7-7.1-22-7.1s-11.2,1-15.4,2.9c-4.3,1.9-7.7,4.5-10.3,7.6-2.6,3.2-4.5,6.7-5.6,10.6l14,4.5c.9-3.9,2.7-7,5.4-9.5,2.7-2.4,6.7-3.6,11.8-3.6s9.1,1.3,11.7,3.8c2.5,2.5,3.8,5.9,3.8,10v4.7h-21.8c-5.2,0-9.9.8-14,2.5-4.1,1.7-7.4,4.1-9.8,7.4-2.4,3.2-3.6,6.5-3.6,11.4s1.2,9,3.6,12.4,5.6,6,9.6,7.7c4,1.8,8.6,2.6,13.8,2.6s8.9-.7,11.9-2.1c3-1.4,5.3-3.1,6.8-5,1.5-1.9,2.7-3.6,3.5-5.1h2.2v10.2h12.5v-45.6c0-8.7-2.7-15.5-8-20.2h0ZM808.9,191.6c0,6-1.8,9.9-5.5,13.3-3.7,3.5-8.5,5.2-14.6,5.2s-7.8-1-10.3-2.9c-2.5-1.9-3.8-4.6-3.8-7.9s1.2-4.9,3.6-6.6c2.4-1.7,5.6-2.5,9.6-2.5h21v1.5h0Z"/>
  </g>
</svg>