<?xml version="1.0" encoding="UTF-8"?>
<svg id="Layer_1" data-name="Layer 1" xmlns="http://www.w3.org/2000/svg" viewBox="0 0 1200 1200">
  <defs>
    <style>
      .cls-1 {
        fill: #0c2836;
      }

      .cls-1, .cls-2 {
        stroke-width: 0px;
      }

      .cls-2 {
        fill: #b7dee8;
      }
    </style>
  </defs>
  <rect class="cls-2" width="1200" height="1200"/>
  <g>
    <path class="cls-1" d="M904.37,762.68c-13.62-13.62-33.07-20.87-51.95-17.07-27.08,5.46-45.44,28.64-45.44,55.11v269.24c0,10.05-6.09,19.68-15.75,22.43-12.17,3.47-24.16-3.82-27.28-15.27l-130.3-477.12,130.3-477.12c3.13-11.45,15.11-18.73,27.28-15.27,9.66,2.75,15.75,12.38,15.75,22.43v269.24c0,26.47,18.36,49.66,45.44,55.11,18.88,3.81,38.33-3.45,51.95-17.07l144.82-144.82c2.25-2.25,2.25-5.89,0-8.14l-37.53-37.53c-2.25-2.25-5.89-2.25-8.14,0l-119.25,119.25c-4.69,4.68-12.69,1.37-12.69-5.26v-232.18c0-53.84-49.46-96.35-105.33-84.49-31.96,6.79-56.61,32.42-65.21,63.94l-101.03,369.93-101.03-369.93c-8.61-31.52-33.25-57.15-65.21-63.94-55.86-11.87-105.33,30.64-105.33,84.49v232.18c0,6.63-8.01,9.94-12.7,5.26l-119.25-119.25c-2.25-2.25-5.9-2.25-8.14,0l-37.53,37.53c-2.25,2.25-2.25,5.89,0,8.14l144.82,144.82c13.62,13.62,33.07,20.87,51.95,17.07,27.08-5.46,45.44-28.64,45.44-55.11V130.04c0-10.05,6.09-19.68,15.75-22.43,12.17-3.47,24.16,3.82,27.28,15.27l130.31,477.12-130.31,477.12c-3.13,11.45-15.11,18.73-27.28,15.27-9.66-2.75-15.75-12.38-15.75-22.43v-269.24c0-26.47-18.36-49.66-45.44-55.11-18.88-3.81-38.33,3.45-51.95,17.07l-144.82,144.82c-2.25,2.25-2.25,5.89,0,8.14l37.53,37.53c2.25,2.25,5.89,2.25,8.14,0l119.25-119.25c4.69-4.68,12.7-1.37,12.7,5.26v232.18c0,53.84,49.46,96.35,105.33,84.49,31.96-6.79,56.6-32.42,65.21-63.94l101.03-369.93,101.03,369.93c8.61,31.52,33.25,57.15,65.21,63.94,55.86,11.87,105.33-30.64,105.33-84.49v-232.18c0-6.63,8.01-9.94,12.69-5.26l119.25,119.25c2.25,2.25,5.89,2.25,8.14,0l37.53-37.53c2.25-2.25,2.25-5.89,0-8.14l-144.82-144.82Z"/>
    <path class="cls-1" d="M1130.41,710.8l-234.44-78.15c-10.59-3.53-19.72-11.38-23.07-22.03-1.13-3.59-1.5-7.14-1.5-10.62,0-3.48.38-7.03,1.5-10.62,3.35-10.65,12.48-18.5,23.07-22.03l234.44-78.15c3.02-1.01,4.65-4.27,3.64-7.28l-16.79-50.36c-1.01-3.02-4.27-4.65-7.28-3.64l-235.93,78.64c-40.29,13.43-67.28,50.98-67.33,93.44.05,42.46,27.04,80.01,67.33,93.44l235.93,78.64c3.02,1.01,6.28-.62,7.28-3.64l16.79-50.36c1.01-3.02-.62-6.28-3.64-7.28Z"/>
    <path class="cls-1" d="M393.28,600c-.05-42.46-27.04-80.01-67.33-93.44l-235.93-78.64c-3.02-1.01-6.28.62-7.28,3.64l-16.79,50.36c-1.01,3.02.62,6.28,3.64,7.28l234.44,78.15c10.59,3.53,19.72,11.38,23.07,22.03,1.13,3.59,1.5,7.14,1.5,10.62,0,3.48-.38,7.03-1.5,10.62-3.35,10.65-12.48,18.5-23.07,22.03l-234.44,78.15c-3.02,1.01-4.65,4.27-3.64,7.28l16.79,50.36c1.01,3.02,4.27,4.65,7.28,3.64l235.93-78.64c40.29-13.43,67.28-50.98,67.33-93.44Z"/>
  </g>
</svg>