<?xml version="1.0" encoding="UTF-8"?>
<svg id="Layer_1" data-name="Layer 1" xmlns="http://www.w3.org/2000/svg" viewBox="0 0 1200 1200">
  <defs>
    <style>
      .cls-1 {
        fill: #b7dee8;
      }

      .cls-1, .cls-2 {
        stroke-width: 0px;
      }

      .cls-2 {
        fill: #fff;
      }
    </style>
  </defs>
  <g>
    <path class="cls-1" d="M256.98,642.97c-3.6-3.6-8.73-5.51-13.72-4.51-7.15,1.44-12,7.57-12,14.56v71.11c0,2.65-1.61,5.2-4.16,5.92-3.22.92-6.38-1.01-7.21-4.03l-34.42-126.02,34.42-126.02c.83-3.02,3.99-4.95,7.21-4.03,2.55.73,4.16,3.27,4.16,5.92v71.11c0,6.99,4.85,13.12,12,14.56,4.99,1.01,10.12-.91,13.72-4.51l38.25-38.25c.59-.59.59-1.56,0-2.15l-9.91-9.91c-.59-.59-1.56-.59-2.15,0l-31.5,31.5c-1.24,1.24-3.35.36-3.35-1.39v-61.32c0-14.22-13.06-25.45-27.82-22.32-8.44,1.79-14.95,8.56-17.22,16.89l-26.68,97.71-26.68-97.71c-2.27-8.32-8.78-15.09-17.22-16.89-14.76-3.13-27.82,8.09-27.82,22.32v61.32c0,1.75-2.12,2.63-3.35,1.39l-31.5-31.5c-.59-.59-1.56-.59-2.15,0l-9.91,9.91c-.59.59-.59,1.56,0,2.15l38.25,38.25c3.6,3.6,8.73,5.51,13.72,4.51,7.15-1.44,12-7.57,12-14.56v-71.11c0-2.65,1.61-5.2,4.16-5.92,3.22-.92,6.38,1.01,7.21,4.03l34.42,126.02-34.42,126.02c-.83,3.02-3.99,4.95-7.21,4.03-2.55-.73-4.16-3.27-4.16-5.92v-71.11c0-6.99-4.85-13.12-12-14.56-4.99-1.01-10.12.91-13.72,4.51l-38.25,38.25c-.59.59-.59,1.56,0,2.15l9.91,9.91c.59.59,1.56.59,2.15,0l31.5-31.5c1.24-1.24,3.35-.36,3.35,1.39v61.32c0,14.22,13.06,25.45,27.82,22.32,8.44-1.79,14.95-8.56,17.22-16.89l26.68-97.71,26.68,97.71c2.27,8.32,8.78,15.09,17.22,16.89,14.76,3.13,27.82-8.09,27.82-22.32v-61.32c0-1.75,2.12-2.63,3.35-1.39l31.5,31.5c.59.59,1.56.59,2.15,0l9.91-9.91c.59-.59.59-1.56,0-2.15l-38.25-38.25Z"/>
    <path class="cls-1" d="M316.69,629.27l-61.92-20.64c-2.8-.93-5.21-3.01-6.09-5.82-.3-.95-.4-1.88-.4-2.81,0-.92.1-1.86.4-2.81.89-2.81,3.3-4.89,6.09-5.82l61.92-20.64c.8-.27,1.23-1.13.96-1.92l-4.43-13.3c-.27-.8-1.13-1.23-1.92-.96l-62.32,20.77c-10.64,3.55-17.77,13.47-17.78,24.68.01,11.21,7.14,21.13,17.78,24.68l62.32,20.77c.8.27,1.66-.17,1.92-.96l4.43-13.3c.27-.8-.17-1.66-.96-1.92Z"/>
    <path class="cls-1" d="M121.99,600c-.01-11.21-7.14-21.13-17.78-24.68l-62.32-20.77c-.8-.27-1.66.17-1.92.96l-4.43,13.3c-.27.8.17,1.66.96,1.92l61.92,20.64c2.8.93,5.21,3.01,6.09,5.82.3.95.4,1.88.4,2.81,0,.92-.1,1.86-.4,2.81-.89,2.81-3.3,4.89-6.09,5.82l-61.92,20.64c-.8.27-1.23,1.13-.96,1.92l4.43,13.3c.27.8,1.13,1.23,1.92.96l62.32-20.77c10.64-3.55,17.77-13.47,17.78-24.68Z"/>
  </g>
  <g>
    <path class="cls-2" d="M428.79,653.02c-12.43,0-22.28-3.52-29.56-10.56-7.28-7.04-10.93-17.21-10.93-30.51v-23.88c0-13.3,3.64-23.48,10.93-30.52,7.28-7.04,17.13-10.56,29.56-10.56s21.68,3.4,28.33,10.2c6.65,6.8,9.98,16.07,9.98,27.82v.87h-15.58v-1.31c0-6.89-1.87-12.53-5.61-16.89-3.74-4.37-9.44-6.56-17.12-6.56s-13.84,2.36-18.2,7.07c-4.37,4.71-6.56,11.24-6.56,19.59v24.47c0,8.25,2.19,14.76,6.56,19.52,4.37,4.76,10.44,7.14,18.2,7.14s13.38-2.21,17.12-6.63c3.74-4.42,5.61-10.02,5.61-16.82v-2.48h15.58v2.04c0,11.75-3.33,21.03-9.98,27.82-6.65,6.8-16.09,10.19-28.33,10.19Z"/>
    <path class="cls-2" d="M517.91,653.02c-7.19,0-13.57-1.48-19.15-4.44s-9.98-7.21-13.18-12.74c-3.2-5.54-4.81-12.09-4.81-19.66v-1.31c0-7.57,1.6-14.1,4.81-19.59,3.2-5.48,7.6-9.73,13.18-12.75,5.58-3.01,11.97-4.51,19.15-4.51s13.59,1.51,19.23,4.51c5.63,3.01,10.05,7.26,13.25,12.75,3.21,5.49,4.81,12.01,4.81,19.59v1.31c0,7.57-1.6,14.13-4.81,19.66-3.2,5.54-7.62,9.78-13.25,12.74-5.63,2.96-12.04,4.44-19.23,4.44ZM517.91,639.62c6.6,0,11.97-2.11,16.09-6.34,4.13-4.22,6.19-10.07,6.19-17.55v-.44c0-7.48-2.04-13.33-6.12-17.55-4.08-4.22-9.47-6.33-16.17-6.33s-11.82,2.11-15.95,6.33c-4.13,4.22-6.19,10.07-6.19,17.55v.44c0,7.48,2.06,13.33,6.19,17.55,4.13,4.22,9.44,6.34,15.95,6.34Z"/>
    <path class="cls-2" d="M571.21,650.98v-71.81h14.71v10.78h2.33c1.36-2.91,3.79-5.63,7.28-8.16,3.5-2.53,8.69-3.79,15.58-3.79,5.44,0,10.27,1.22,14.49,3.64,4.22,2.43,7.55,5.85,9.98,10.27,2.43,4.42,3.64,9.73,3.64,15.95v43.11h-15v-41.95c0-6.21-1.55-10.8-4.66-13.76-3.11-2.96-7.38-4.44-12.82-4.44-6.22,0-11.19,2.04-14.93,6.12-3.74,4.08-5.61,10-5.61,17.77v36.27h-15Z"/>
    <path class="cls-2" d="M657.46,579.17v-23.74h15v23.74h19.08v12.67h-19.08v42.09c0,2.91,1.36,4.37,4.08,4.37h15v12.67h-19.81c-4.37,0-7.84-1.31-10.41-3.93-2.57-2.63-3.86-6.12-3.86-10.49v-57.39Z"/>
    <path class="cls-2" d="M709.78,650.98v-71.81h14.71v8.45h2.33c1.17-3.01,3.03-5.22,5.61-6.63,2.57-1.4,5.76-2.11,9.54-2.11h8.59v13.55h-9.18c-4.86,0-8.84,1.34-11.94,4-3.11,2.67-4.66,6.77-4.66,12.31v42.24h-15Z"/>
    <path class="cls-2" d="M971.46,650.98v-71.81h15v71.81h-15Z"/>
    <path class="cls-2" d="M979.03,567.37c-2.91,0-5.36-.95-7.36-2.84-1.99-1.89-2.99-4.34-2.99-7.36s1-5.46,2.99-7.36c1.99-1.89,4.44-2.84,7.36-2.84s5.48.94,7.43,2.84c1.94,1.89,2.91,4.35,2.91,7.36s-.97,5.46-2.91,7.36c-1.94,1.89-4.42,2.84-7.43,2.84Z"/>
    <path class="cls-2" d="M1005.85,650.98v-71.81h14.71v10.78h2.33c1.36-2.91,3.79-5.63,7.28-8.16,3.5-2.53,8.69-3.79,15.58-3.79,5.44,0,10.27,1.22,14.49,3.64,4.22,2.43,7.55,5.85,9.98,10.27,2.43,4.42,3.64,9.73,3.64,15.95v43.11h-15v-41.95c0-6.21-1.55-10.8-4.66-13.76-3.11-2.96-7.38-4.44-12.82-4.44-6.22,0-11.19,2.04-14.93,6.12-3.74,4.08-5.61,10-5.61,17.77v36.27h-15Z"/>
    <path class="cls-2" d="M1123.03,653.02c-5.93,0-11.41-1.46-16.46-4.37-5.05-2.91-9.1-7.11-12.16-12.6-3.06-5.48-4.59-12.11-4.59-19.88v-1.31c0-7.67,1.51-14.27,4.51-19.81,3.01-5.53,7.04-9.76,12.09-12.67,5.05-2.91,10.58-4.37,16.61-4.37,4.66,0,8.57.58,11.73,1.75,3.15,1.17,5.75,2.65,7.79,4.44,2.04,1.8,3.59,3.67,4.66,5.61h2.33v-40.78h15.01v101.95h-14.71v-10.19h-2.33c-1.85,3.11-4.64,5.92-8.37,8.45-3.74,2.52-9.1,3.79-16.09,3.79ZM1127.26,639.91c6.5,0,11.87-2.08,16.09-6.26,4.22-4.17,6.34-10.15,6.34-17.92v-.44c0-7.67-2.09-13.59-6.26-17.77-4.18-4.17-9.57-6.26-16.17-6.26s-11.73,2.09-15.95,6.26c-4.22,4.18-6.33,10.1-6.33,17.77v.44c0,7.77,2.11,13.74,6.33,17.92,4.22,4.18,9.54,6.26,15.95,6.26Z"/>
    <path class="cls-2" d="M918.87,559.35l-22.04,81.15-22.04-81.15c-1.98-7.3-8.61-12.36-16.17-12.36h0c-9.25,0-16.76,7.5-16.76,16.76v87.24h15.29v-88.69h2.33l24.09,88.69h26.51l24.09-88.69h2.33v88.69h15.29v-87.24c0-9.25-7.5-16.76-16.76-16.76h0c-7.56,0-14.19,5.07-16.17,12.36Z"/>
    <path class="cls-2" d="M815.61,585.15c-5.34-4.76-12.67-7.14-21.99-7.14-6.02,0-11.17.97-15.44,2.92-4.27,1.94-7.7,4.49-10.27,7.64-2.57,3.16-4.45,6.68-5.61,10.56l13.98,4.51c.87-3.88,2.67-7.04,5.39-9.47,2.71-2.43,6.65-3.64,11.8-3.64s9.13,1.26,11.65,3.79c2.52,2.53,3.79,5.87,3.79,10.05v4.66h-21.85c-5.24,0-9.93.83-14.05,2.48-4.13,1.65-7.38,4.1-9.76,7.36-2.38,3.25-3.57,6.48-3.57,11.44s1.19,8.98,3.57,12.38c2.38,3.4,5.58,5.97,9.62,7.72,4.02,1.75,8.62,2.62,13.76,2.62s8.93-.71,11.94-2.11c3.01-1.41,5.29-3.08,6.85-5.02,1.55-1.94,2.72-3.64,3.5-5.1h2.18v10.19h12.52v-45.59c0-8.74-2.67-15.49-8.01-20.24ZM808.91,622.14c0,6.02-1.85,9.88-5.53,13.33-3.69,3.45-8.55,5.17-14.57,5.17-4.37,0-7.82-.97-10.34-2.91-2.53-1.94-3.79-4.56-3.79-7.87s1.22-4.93,3.64-6.63c2.43-1.7,5.63-2.55,9.62-2.55h20.97v1.45Z"/>
  </g>
</svg>